<svg xmlns="http://www.w3.org/2000/svg" width="117" height="16" fill="none"><path fill="#EF9546" d="M16.5386 6.0972c-.035-.10726-.1277-.18548-.2394-.20178l-5.36-.77896L8.54216.259572C8.49238.158238 8.38927.0942383 8.27668.0942383c-.1126 0-.216.0639997-.26549.1653337L5.61386 5.11676l-5.359999.77896c-.111704.0163-.204148.09422-.2394072.20178-.0346667.10696-.005926.22489.0749629.30341L3.96823 10.1816l-.91585 5.3387c-.01896.1111.02667.2234.11763.2898.09155.067.21274.0755.312.0225l4.79467-2.5203 4.79412 2.5203c.0432.0228.0909.0341.138.0341.0614 0 .1224-.019.1742-.0566.0913-.0664.1369-.1787.1177-.2898l-.9156-5.3384 3.8788-3.78099c.0806-.07912.1097-.19675.0747-.30371Zm24.9999 0c-.0349-.10726-.1277-.18548-.2394-.20178l-5.36-.77896-2.397-4.856888c-.0498-.101334-.1529-.1653337-.2655-.1653337s-.216.0639997-.2655.1653337L30.6138 5.11676l-5.36.77896c-.1117.0163-.2041.09422-.2394.20178-.0347.10696-.0059.22489.075.30341l3.8788 3.78069-.9159 5.3387c-.0189.1111.0267.2234.1176.2898.0916.067.2128.0755.312.0225l4.7947-2.5203 4.7941 2.5203c.0432.0228.091.0341.1381.0341.0613 0 .1223-.019.1742-.0566.0912-.0664.1369-.1787.1176-.2898l-.9155-5.3384 3.8788-3.78099c.0806-.07912.1096-.19675.0746-.30371Zm25 0c-.0349-.10726-.1277-.18548-.2394-.20178l-5.36-.77896-2.397-4.856888c-.0498-.101334-.1529-.1653337-.2655-.1653337s-.216.0639997-.2655.1653337L55.6138 5.11676l-5.36.77896c-.1117.0163-.2041.09422-.2394.20178-.0347.10696-.0059.22489.075.30341l3.8788 3.78069-.9159 5.3387c-.0189.1111.0267.2234.1176.2898.0916.067.2128.0755.312.0225l4.7947-2.5203 4.7941 2.5203c.0432.0228.091.0341.1381.0341.0613 0 .1223-.019.1742-.0566.0912-.0664.1369-.1787.1176-.2898l-.9155-5.3384 3.8788-3.78099c.0806-.07912.1096-.19675.0746-.30371Zm25 0c-.035-.10726-.1277-.18548-.2394-.20178l-5.36-.77896L83.542.259572c-.0497-.101334-.1529-.1653337-.2654-.1653337-.1126 0-.216.0639997-.2655.1653337L80.6137 5.11676l-5.36.77896c-.1117.0163-.2041.09422-.2394.20178-.0346.10696-.0059.22489.075.30341l3.8788 3.78069-.9158 5.3387c-.019.1111.0266.2234.1176.2898.0915.067.2127.0755.312.0225l4.7947-2.5203 4.794 2.5203c.0433.0228.091.0341.1381.0341.0613 0 .1224-.019.1742-.0566.0913-.0664.1369-.1787.1177-.2898l-.9156-5.3384 3.8788-3.78099c.0806-.07912.1096-.19675.0747-.30371Zm25.0005 0c-.035-.10726-.128-.18548-.24-.20178l-5.36-.77896-2.397-4.856888c-.05-.101334-.153-.1653337-.265-.1653337-.113 0-.216.0639997-.266.1653337l-2.397 4.857188-5.36.77896c-.112.0163-.204.09422-.24.20178-.0343.10696-.006.22489.075.30341l3.879 3.78069-.916 5.3387c-.019.1111.027.2234.118.2898.092.067.213.0755.312.0225l4.795-2.5203 4.794 2.5203c.043.0228.091.0341.138.0341.061 0 .122-.019.174-.0566.091-.0664.137-.1787.118-.2898l-.916-5.3384 3.879-3.78099c.08-.07912.11-.19675.075-.30371Z"/></svg>